<svg width="46" height="46" viewBox="0 0 46 46" fill="none" xmlns="http://www.w3.org/2000/svg">
<g id="material-symbols:done-rounded">
<path id="Vector" d="M18.3042 29.0375L34.5479 12.7938C34.9313 12.4104 35.3868 12.2188 35.9145 12.2188C36.4422 12.2188 36.8971 12.4104 37.2792 12.7938C37.6625 13.1771 37.8542 13.6326 37.8542 14.1603C37.8542 14.6881 37.6625 15.1429 37.2792 15.525L19.6459 33.1583C19.2625 33.5417 18.8153 33.7333 18.3042 33.7333C17.7931 33.7333 17.3459 33.5417 16.9625 33.1583L8.72085 24.9167C8.33752 24.5333 8.15352 24.0778 8.16885 23.5501C8.18419 23.0224 8.38416 22.5675 8.76877 22.1854C9.1521 21.8021 9.60763 21.6104 10.1354 21.6104C10.6631 21.6104 11.118 21.8021 11.5 22.1854L18.3042 29.0375Z" fill="url(#paint0_linear_35_3238)"/>
</g>
<defs>
<linearGradient id="paint0_linear_35_3238" x1="20.5372" y1="21.8847" x2="26.2142" y2="23.4914" gradientUnits="userSpaceOnUse">
<stop stop-color="#9BA6FB"/>
<stop offset="0.503125" stop-color="#D7A3FF"/>
<stop offset="0.982292" stop-color="#FFA3D5"/>
</linearGradient>
</defs>
</svg>
