<svg width="35" height="35" viewBox="0 0 35 35" fill="none" xmlns="http://www.w3.org/2000/svg">
<path d="M29.1665 26.25H26.2498V13.4896L17.4998 18.9583L8.74984 13.4896V26.25H5.83317V8.74998H7.58317L17.4998 14.9479L27.4165 8.74998H29.1665M29.1665 5.83331H5.83317C4.21442 5.83331 2.9165 7.13123 2.9165 8.74998V26.25C2.9165 27.0235 3.22379 27.7654 3.77078 28.3124C4.31776 28.8593 5.05962 29.1666 5.83317 29.1666H29.1665C29.9401 29.1666 30.6819 28.8593 31.2289 28.3124C31.7759 27.7654 32.0832 27.0235 32.0832 26.25V8.74998C32.0832 7.97643 31.7759 7.23457 31.2289 6.68758C30.6819 6.1406 29.9401 5.83331 29.1665 5.83331Z" fill="#232323"/>
</svg>
