<?xml version="1.0" encoding="utf-8"?><svg viewBox="0 0 46 46" xmlns="http://www.w3.org/2000/svg" xmlns:xlink="http://www.w3.org/1999/xlink"><style>:root>svg{display:none}:root>svg:target{display:block}</style><svg fill="none" viewBox="0 0 46 46" id="done" xmlns="http://www.w3.org/2000/svg"><path d="m18.304 29.038 16.244-16.244a1.867 1.867 0 0 1 1.366-.575c.528 0 .983.191 1.365.575.383.383.575.839.575 1.366 0 .528-.191.983-.575 1.365L19.646 33.158c-.384.384-.83.575-1.342.575-.51 0-.958-.191-1.341-.575L8.72 24.917a1.788 1.788 0 0 1-.552-1.367c.015-.528.215-.983.6-1.365a1.867 1.867 0 0 1 1.366-.575c.528 0 .983.192 1.365.575l6.804 6.853z" fill="url(#aa)"/><defs><linearGradient id="aa" x1="20.537" y1="21.885" x2="26.214" y2="23.491" gradientUnits="userSpaceOnUse"><stop stop-color="#9BA6FB"/><stop offset=".503" stop-color="#D7A3FF"/><stop offset=".982" stop-color="#FFA3D5"/></linearGradient></defs></svg><svg fill="none" viewBox="0 0 35 35" id="gmail" xmlns="http://www.w3.org/2000/svg"><path d="M29.166 26.25H26.25V13.49l-8.75 5.468-8.75-5.468v12.76H5.833V8.75h1.75l9.917 6.198 9.916-6.198h1.75m0-2.917H5.834A2.907 2.907 0 0 0 2.916 8.75v17.5a2.917 2.917 0 0 0 2.917 2.917h23.334a2.917 2.917 0 0 0 2.916-2.917V8.75a2.917 2.917 0 0 0-2.916-2.917z" fill="#232323"/></svg><svg fill="none" viewBox="0 0 41 41" id="star" xmlns="http://www.w3.org/2000/svg"><path d="m20.276 0-2.293 18.09L0 20.397l17.983 2.307 2.172 17.97 2.414-18.091 18.104-2.307L22.69 18.09 20.276 0z" fill="#8C96E0"/></svg><svg fill="none" viewBox="0 0 35 35" id="telegram" xmlns="http://www.w3.org/2000/svg"><path d="M17.5 2.917C9.45 2.917 2.916 9.45 2.916 17.5S9.45 32.083 17.5 32.083 32.083 25.55 32.083 17.5 25.55 2.917 17.5 2.917zm6.767 9.916c-.22 2.304-1.167 7.905-1.648 10.486-.205 1.094-.613 1.458-.992 1.502-.846.073-1.488-.554-2.304-1.094-1.284-.846-2.013-1.37-3.252-2.187-1.444-.948-.51-1.473.32-2.32.22-.218 3.953-3.616 4.026-3.922a.292.292 0 0 0-.073-.263c-.088-.072-.205-.043-.307-.029-.13.03-2.173 1.386-6.154 4.069-.583.394-1.108.598-1.575.583-.525-.014-1.517-.291-2.26-.54-.919-.29-1.634-.451-1.575-.962.029-.262.394-.525 1.079-.802 4.258-1.852 7.087-3.077 8.502-3.66 4.054-1.692 4.885-1.984 5.44-1.984.116 0 .393.03.568.175a.58.58 0 0 1 .204.394c-.014.088.015.35 0 .554z" fill="#232323"/></svg><svg fill="none" viewBox="0 0 35 35" id="viber" xmlns="http://www.w3.org/2000/svg"><path fill-rule="evenodd" clip-rule="evenodd" d="M24.319 3.833a31.937 31.937 0 0 0-13.934 0l-.495.109a7.153 7.153 0 0 0-5.372 5.22 28.39 28.39 0 0 0 0 13.967 7.153 7.153 0 0 0 5.022 5.133l.678 4.049a.73.73 0 0 0 1.205.423l3.983-3.563c2.99.183 5.99-.057 8.913-.71l.496-.11a7.154 7.154 0 0 0 5.372-5.22 28.392 28.392 0 0 0 0-13.967 7.153 7.153 0 0 0-5.374-5.22l-.494-.111zM11.616 9.044a1.199 1.199 0 0 0-.784.154h-.02a6.002 6.002 0 0 0-1.46 1.2c-.35.404-.54.813-.589 1.206-.03.234-.009.47.06.693l.026.015a17.346 17.346 0 0 0 1.534 3.316 19.503 19.503 0 0 0 2.96 4.047l.036.05.055.04.034.04.04.035a19.778 19.778 0 0 0 4.058 2.975c1.684.917 2.706 1.35 3.32 1.53v.01c.18.055.343.08.508.08a2.347 2.347 0 0 0 1.405-.604c.474-.42.875-.914 1.188-1.464v-.01c.293-.555.194-1.076-.23-1.43a17.683 17.683 0 0 0-2.743-1.97c-.653-.354-1.316-.14-1.585.22l-.573.722c-.295.36-.828.31-.828.31l-.015.008c-3.983-1.016-5.046-5.048-5.046-5.048s-.05-.549.32-.829l.717-.577c.344-.28.584-.942.215-1.596a17.22 17.22 0 0 0-1.965-2.741 1.09 1.09 0 0 0-.641-.384l.003.002zm6.728-1.753a.73.73 0 0 0 0 1.458c1.845 0 3.376.602 4.588 1.757a6.463 6.463 0 0 1 1.426 2.2c.32.82.466 1.697.428 2.575a.73.73 0 0 0 1.458.061 7.815 7.815 0 0 0-.526-3.165 7.938 7.938 0 0 0-1.756-2.703l-.015-.015c-1.503-1.436-3.406-2.168-5.603-2.168zm-.05 2.397a.73.73 0 1 0 0 1.459h.025c1.33.094 2.299.538 2.977 1.265.695.75 1.056 1.682 1.028 2.834a.73.73 0 0 0 1.458.033c.035-1.512-.452-2.817-1.417-3.858v-.003c-.987-1.059-2.342-1.619-3.973-1.728l-.024-.003-.073.001zm-.027 2.443a.73.73 0 1 0-.076 1.455c.61.032 1 .216 1.244.463.247.247.43.646.464 1.268a.728.728 0 1 0 1.455-.077c-.046-.875-.32-1.648-.882-2.217-.564-.568-1.333-.845-2.205-.892z" fill="#232323"/></svg><svg fill="none" viewBox="0 0 35 35" id="whatsapp" xmlns="http://www.w3.org/2000/svg"><path d="M17.501 2.917c8.055 0 14.584 6.529 14.584 14.583S25.555 32.083 17.5 32.083a14.517 14.517 0 0 1-7.335-1.976l-7.242 1.976 1.971-7.245A14.515 14.515 0 0 1 2.918 17.5c0-8.054 6.529-14.583 14.583-14.583zm-4.97 7.729-.291.011a1.4 1.4 0 0 0-.543.146 1.88 1.88 0 0 0-.429.333c-.175.165-.274.308-.38.446a3.98 3.98 0 0 0-.826 2.447c.003.715.19 1.41.482 2.06.596 1.316 1.577 2.709 2.872 4 .313.31.619.622.948.913a13.779 13.779 0 0 0 5.6 2.983l.829.127c.27.015.54-.006.81-.019a2.9 2.9 0 0 0 1.215-.337c.191-.098.378-.205.559-.32 0 0 .063-.041.182-.132.197-.146.318-.25.482-.42.12-.125.226-.273.306-.44.113-.238.227-.691.274-1.07.035-.288.025-.445.02-.543-.005-.156-.135-.318-.277-.387l-.849-.38s-1.268-.553-2.044-.906a.724.724 0 0 0-.257-.06.7.7 0 0 0-.551.186c-.007-.003-.105.08-1.16 1.357a.51.51 0 0 1-.536.19 2.092 2.092 0 0 1-.279-.096c-.18-.076-.243-.105-.367-.158a8.785 8.785 0 0 1-2.297-1.463c-.184-.16-.354-.335-.53-.504a9.175 9.175 0 0 1-1.487-1.85l-.086-.138a1.341 1.341 0 0 1-.149-.299c-.055-.214.09-.386.09-.386s.354-.388.518-.598a6.23 6.23 0 0 0 .384-.544c.172-.277.226-.562.136-.782-.409-.997-.832-1.99-1.266-2.976-.086-.196-.341-.336-.573-.363a6.513 6.513 0 0 0-.237-.024 4.925 4.925 0 0 0-.587.006l.293-.012.001.002z" fill="#232323"/></svg></svg>