<svg width="35" height="35" viewBox="0 0 35 35" fill="none" xmlns="http://www.w3.org/2000/svg">
<path d="M17.4998 2.91669C9.44984 2.91669 2.9165 9.45002 2.9165 17.5C2.9165 25.55 9.44984 32.0834 17.4998 32.0834C25.5498 32.0834 32.0832 25.55 32.0832 17.5C32.0832 9.45002 25.5498 2.91669 17.4998 2.91669ZM24.2665 12.8334C24.0478 15.1375 23.0998 20.7375 22.6186 23.3188C22.4144 24.4125 22.0061 24.7771 21.6269 24.8209C20.7811 24.8938 20.1394 24.2667 19.3228 23.7271C18.0394 22.8813 17.3103 22.3563 16.0707 21.5396C14.6269 20.5917 15.5603 20.0667 16.3915 19.2209C16.6103 19.0021 20.3436 15.6042 20.4165 15.2979C20.4266 15.2516 20.4253 15.2034 20.4126 15.1577C20.3999 15.1119 20.3762 15.07 20.3436 15.0354C20.2561 14.9625 20.1394 14.9917 20.0373 15.0063C19.9061 15.0354 17.8644 16.3917 13.8832 19.075C13.2998 19.4688 12.7748 19.6729 12.3082 19.6584C11.7832 19.6438 10.7915 19.3667 10.0478 19.1188C9.129 18.8271 8.41442 18.6667 8.47275 18.1563C8.50192 17.8938 8.86651 17.6313 9.55192 17.3542C13.8103 15.5021 16.6394 14.2771 18.054 13.6938C22.1082 12.0021 22.9394 11.7104 23.4936 11.7104C23.6103 11.7104 23.8873 11.7396 24.0623 11.8854C24.2082 12.0021 24.2519 12.1625 24.2665 12.2792C24.2519 12.3667 24.2811 12.6292 24.2665 12.8334Z" fill="#232323"/>
</svg>
