<svg width="35" height="35" viewBox="0 0 35 35" fill="none" xmlns="http://www.w3.org/2000/svg">
<path fill-rule="evenodd" clip-rule="evenodd" d="M24.319 3.8325C19.7309 2.80689 14.9728 2.80689 10.3847 3.8325L9.89028 3.94188C8.59968 4.23043 7.41433 4.87111 6.46592 5.79275C5.51751 6.71439 4.84315 7.8809 4.51778 9.16271C3.35475 13.7456 3.35475 18.5463 4.51778 23.1292C4.82807 24.3516 5.45608 25.4703 6.33812 26.3718C7.22016 27.2733 8.32487 27.9256 9.54028 28.2625L10.2184 32.3108C10.24 32.4394 10.2958 32.5598 10.3797 32.6595C10.4637 32.7592 10.5729 32.8346 10.6959 32.8778C10.8189 32.9209 10.9512 32.9304 11.0791 32.905C11.207 32.8797 11.3257 32.8206 11.423 32.7338L15.4057 29.171C18.3954 29.3535 21.3959 29.1144 24.319 28.4608L24.8149 28.3515C26.1055 28.0629 27.2908 27.4222 28.2392 26.5006C29.1876 25.579 29.862 24.4124 30.1874 23.1306C31.3503 18.5478 31.3503 13.747 30.1874 9.16417C29.8619 7.88218 29.1873 6.71553 28.2386 5.79387C27.2899 4.87222 26.1043 4.23165 24.8134 3.94334L24.319 3.8325ZM11.6155 9.04459C11.3444 9.00514 11.0681 9.05969 10.8324 9.19917H10.8119C10.2651 9.52 9.77215 9.92396 9.35215 10.3994C9.00215 10.8033 8.81257 11.2117 8.76299 11.6054C8.73382 11.8388 8.75424 12.075 8.82278 12.2981L8.84903 12.3127C9.24278 13.4692 9.75611 14.5819 10.3832 15.629C11.1918 17.0997 12.1868 18.4599 13.3436 19.6758L13.3786 19.7254L13.434 19.7663L13.4676 19.8056L13.5084 19.8406C14.7286 21.0009 16.092 22.0007 17.5655 22.8156C19.2499 23.7329 20.2722 24.166 20.8861 24.3469V24.3556C21.0655 24.411 21.2288 24.4358 21.3936 24.4358C21.9165 24.3972 22.4114 24.1847 22.7994 23.8321C23.2734 23.4121 23.6744 22.9177 23.9865 22.3679V22.3577C24.2797 21.8035 24.1805 21.2815 23.7576 20.9271C22.9081 20.1848 21.9895 19.5256 21.0144 18.9583C20.3611 18.604 19.6976 18.8183 19.4292 19.1771L18.8561 19.9004C18.5615 20.2592 18.0278 20.2096 18.0278 20.2096L18.0132 20.2183C14.0305 19.2019 12.9674 15.1696 12.9674 15.1696C12.9674 15.1696 12.9178 14.6213 13.2867 14.3413L14.0042 13.7638C14.3484 13.4838 14.5876 12.8217 14.2186 12.1683C13.6551 11.1924 12.9972 10.2741 12.2542 9.42667C12.0922 9.22724 11.865 9.09141 11.6126 9.04313L11.6155 9.04459ZM18.3442 7.29167C18.1508 7.29167 17.9654 7.36849 17.8286 7.50524C17.6919 7.64198 17.6151 7.82745 17.6151 8.02084C17.6151 8.21423 17.6919 8.39969 17.8286 8.53644C17.9654 8.67318 18.1508 8.75 18.3442 8.75C20.189 8.75 21.7203 9.3523 22.9322 10.5073C23.5549 11.1388 24.0405 11.8869 24.3584 12.7065C24.6778 13.5275 24.8236 14.404 24.7857 15.2819C24.7817 15.3776 24.7966 15.4732 24.8295 15.5632C24.8624 15.6533 24.9127 15.7359 24.9776 15.8064C25.1086 15.9489 25.2908 16.0335 25.4842 16.0417C25.6776 16.0498 25.8663 15.9808 26.0088 15.8498C26.1513 15.7188 26.2359 15.5365 26.244 15.3431C26.2893 14.2632 26.11 13.1857 25.7176 12.1785C25.3234 11.1667 24.7258 10.2464 23.9617 9.4748L23.9472 9.46021C22.4436 8.02375 20.5405 7.29167 18.3442 7.29167ZM18.2947 9.68917C18.1013 9.68917 17.9158 9.76599 17.7791 9.90274C17.6423 10.0395 17.5655 10.225 17.5655 10.4183C17.5655 10.6117 17.6423 10.7972 17.7791 10.9339C17.9158 11.0707 18.1013 11.1475 18.2947 11.1475H18.3194C19.6494 11.2423 20.6178 11.6856 21.2959 12.4133C21.9915 13.1629 22.3517 14.0948 22.324 15.2469C22.3196 15.4403 22.3921 15.6275 22.5257 15.7674C22.6593 15.9073 22.843 15.9884 23.0364 15.9928C23.2298 15.9973 23.417 15.9247 23.5569 15.7911C23.6968 15.6575 23.7779 15.4738 23.7824 15.2804C23.8174 13.7681 23.3303 12.4629 22.3649 11.4217V11.4188C21.3776 10.36 20.0228 9.8 18.3924 9.69063L18.3676 9.68771L18.2947 9.68917ZM18.2669 12.1319C18.1694 12.1233 18.071 12.1344 17.9779 12.1646C17.8847 12.1949 17.7985 12.2436 17.7246 12.3078C17.6507 12.3721 17.5904 12.4506 17.5475 12.5386C17.5045 12.6267 17.4798 12.7225 17.4747 12.8203C17.4696 12.9181 17.4842 13.016 17.5178 13.108C17.5514 13.2 17.6031 13.2844 17.67 13.356C17.7369 13.4275 17.8175 13.4849 17.907 13.5247C17.9965 13.5644 18.0932 13.5857 18.1911 13.5873C18.8007 13.6194 19.1901 13.8031 19.4351 14.0496C19.6815 14.2975 19.8653 14.6956 19.8988 15.3183C19.9006 15.4162 19.9221 15.5127 19.962 15.602C20.0019 15.6914 20.0594 15.7718 20.1311 15.8385C20.2027 15.9052 20.287 15.9568 20.379 15.9902C20.471 16.0236 20.5688 16.0381 20.6665 16.0329C20.7643 16.0277 20.8599 16.0029 20.9479 15.96C21.0358 15.917 21.1142 15.8568 21.1784 15.7829C21.2426 15.709 21.2912 15.6229 21.3214 15.5299C21.3516 15.4368 21.3628 15.3385 21.3542 15.241C21.3076 14.366 21.0334 13.5931 20.4719 13.0244C19.9076 12.4556 19.139 12.1785 18.2669 12.1319Z" fill="#232323"/>
</svg>
