<svg width="35" height="35" viewBox="0 0 35 35" fill="none" xmlns="http://www.w3.org/2000/svg">
<path d="M17.5013 2.91669C25.5557 2.91669 32.0847 9.44565 32.0847 17.5C32.0847 25.5544 25.5557 32.0834 17.5013 32.0834C14.9241 32.0875 12.3923 31.4055 10.1659 30.1073L2.92382 32.0834L4.89549 24.8384C3.59625 22.6113 2.91368 20.0784 2.91799 17.5C2.91799 9.44565 9.44695 2.91669 17.5013 2.91669ZM12.5313 10.6459L12.2397 10.6575C12.0508 10.669 11.8663 10.7186 11.6972 10.8034C11.539 10.8929 11.3945 11.0049 11.2684 11.1359C11.0934 11.3006 10.9942 11.4436 10.8878 11.5821C10.3484 12.2834 10.0579 13.1444 10.0624 14.0292C10.0653 14.7438 10.2519 15.4394 10.5436 16.0898C11.1401 17.4052 12.1215 18.7979 13.4165 20.0886C13.7286 20.3992 14.0349 20.7113 14.3644 21.0015C15.9736 22.4182 17.8911 23.4399 19.9644 23.9852L20.7928 24.1121C21.0626 24.1267 21.3324 24.1063 21.6036 24.0931C22.0283 24.0712 22.4431 23.9562 22.8184 23.7563C23.0094 23.6579 23.1958 23.5508 23.3769 23.4354C23.3769 23.4354 23.4397 23.3946 23.5592 23.3042C23.7561 23.1584 23.8772 23.0548 24.0405 22.8842C24.1615 22.7588 24.2665 22.6115 24.3467 22.4438C24.4605 22.2061 24.5742 21.7525 24.6209 21.3748C24.6559 21.0861 24.6457 20.9286 24.6413 20.8309C24.6355 20.6748 24.5057 20.5129 24.3642 20.4444L23.5155 20.0638C23.5155 20.0638 22.2467 19.5111 21.4709 19.1581C21.3897 19.1227 21.3027 19.1024 21.2142 19.0984C21.1145 19.0881 21.0136 19.0993 20.9186 19.1313C20.8235 19.1632 20.7363 19.2151 20.663 19.2836C20.6557 19.2806 20.558 19.3638 19.5036 20.6413C19.4431 20.7226 19.3597 20.784 19.2642 20.8178C19.1686 20.8516 19.0651 20.8561 18.9669 20.8309C18.8719 20.8054 18.7789 20.7732 18.6884 20.7346C18.5076 20.6588 18.4449 20.6296 18.3209 20.5771C17.4839 20.2119 16.709 19.7184 16.024 19.1144C15.8403 18.954 15.6697 18.779 15.4947 18.6098C14.9209 18.0604 14.4209 17.4388 14.0072 16.7606L13.9211 16.6221C13.8593 16.529 13.8093 16.4286 13.7724 16.3231C13.7169 16.1088 13.8613 15.9367 13.8613 15.9367C13.8613 15.9367 14.2157 15.5488 14.3805 15.3388C14.5409 15.1346 14.6765 14.9363 14.764 14.7948C14.9361 14.5177 14.9901 14.2334 14.8997 14.0131C14.4913 13.0156 14.0684 12.0225 13.6338 11.0367C13.5478 10.8413 13.2926 10.7013 13.0607 10.6736C12.9819 10.6648 12.9032 10.6561 12.8244 10.6502C12.6286 10.6405 12.4324 10.6424 12.2367 10.6561L12.5299 10.6444L12.5313 10.6459Z" fill="#232323"/>
</svg>
